<svg width="21" height="21" viewBox="0 0 21 21" fill="none" xmlns="http://www.w3.org/2000/svg">
<path fill-rule="evenodd" clip-rule="evenodd" d="M10.5 0C16.2986 0 21 4.70142 21 10.5C21 16.2986 16.2986 21 10.5 21C4.70142 21 0 16.2986 0 10.5C0 4.70142 4.70142 0 10.5 0ZM10.4539 10.5273C10.7546 10.5273 10.9973 10.77 10.9973 11.0708C10.9973 11.3716 10.7546 11.6143 10.4539 11.6143C10.1531 11.6143 9.9104 11.3716 9.9104 11.0708C9.9104 10.7717 10.1548 10.5273 10.4539 10.5273ZM10.459 9.10547C11.5425 9.10547 12.4192 9.98389 12.4192 11.0657C12.4192 12.1492 11.5408 13.0259 10.459 13.0259C9.3772 13.0259 8.49878 12.1475 8.49878 11.0657C8.49878 9.98218 9.3772 9.10547 10.459 9.10547ZM2.52588 7.61694C3.28638 5.51318 4.83643 3.73755 6.78125 2.83008C9.45239 1.58423 12.696 1.50562 15.4441 3.53931C17.0642 4.7373 17.6555 5.71997 18.4639 7.46143C19.0757 9.00464 18.5732 9.50708 16.6062 8.64062C12.5405 6.62915 8.43042 6.71973 4.28101 8.64062C2.74976 9.64038 1.89014 8.8064 2.52588 7.61694ZM12.9712 18.6365C15.8115 17.7427 17.4692 15.9346 18.4861 13.6292C19.1475 11.8467 17.0745 11.2417 16.3464 12.4158C15.9106 13.2805 15.3911 14.0222 14.7144 14.5981C13.6548 15.4988 12.1201 15.6628 11.8809 17.3599C11.7561 18.2417 11.9578 19.0347 12.9712 18.6365ZM8.07666 18.6365C5.23633 17.7427 3.57861 15.9346 2.56177 13.6292C1.90039 11.8467 3.97339 11.2417 4.70142 12.4158C5.13721 13.2805 5.65674 14.0222 6.3335 14.5981C7.39307 15.4988 8.92773 15.6628 9.16699 17.3599C9.29175 18.2417 9.09009 19.0347 8.07666 18.6365Z" fill="#24527A"/>
</svg>
