<svg width="21" height="21" viewBox="0 0 21 21" fill="none" xmlns="http://www.w3.org/2000/svg">
<path d="M18.7075 5.70395C18.7387 5.70395 18.7689 5.7007 18.7986 5.69489C18.9945 6.03635 19.1731 6.39473 19.3344 6.76917C19.3375 6.77669 19.3407 6.78387 19.3445 6.79105C19.5868 7.36271 19.7697 7.95641 19.8929 8.57165C19.9884 9.04897 20.0474 9.53843 20.0698 10.0399H17.1828C17.1303 8.57456 16.6928 7.12943 15.8773 5.70395H18.7075ZM18.2042 4.78349H15.2966C14.414 3.50498 13.2251 2.2422 11.7353 0.995148C11.969 1.0242 12.2 1.06146 12.4283 1.10709C13.0514 1.23167 13.6527 1.41761 14.2312 1.66491L14.2308 1.66559C14.8189 1.91852 15.3666 2.21452 15.873 2.5541C16.3804 2.89453 16.8507 3.28127 17.2829 3.71536L17.2846 3.71707C17.6191 4.05015 17.9255 4.4058 18.2042 4.78349ZM9.26448 0.995319C7.77492 2.2422 6.58597 3.50498 5.70327 4.78349H2.79609C3.07483 4.4058 3.38108 4.05015 3.71536 3.71707L3.71707 3.71519V3.71536C4.14945 3.28127 4.61976 2.89453 5.12699 2.5541C5.6332 2.21452 6.18093 1.91852 6.76917 1.66559C6.77652 1.66234 6.78387 1.65909 6.79105 1.65551C7.36271 1.413 7.95641 1.23031 8.57182 1.10709C8.80015 1.06146 9.03086 1.0242 9.26448 0.995319ZM2.1964 5.70395H5.12255C4.30719 7.12943 3.86951 8.57456 3.81739 10.0399H0.93055C0.952767 9.53843 1.01173 9.04914 1.10726 8.57182C1.23185 7.94872 1.41796 7.3475 1.66508 6.769L1.66576 6.76917C1.82555 6.39798 2.00226 6.04268 2.1964 5.70395ZM0.93055 10.9601H3.83533C3.94215 12.3957 4.41844 13.841 5.27209 15.296H2.1964C2.00226 14.9573 1.82555 14.602 1.66576 14.2307C1.66251 14.2233 1.6591 14.216 1.65568 14.209C1.41317 13.6371 1.23048 13.0434 1.10726 12.4282C1.01173 11.9509 0.952767 11.4614 0.93055 10.9601ZM2.79609 16.2163H5.86169C6.73465 17.4743 7.88891 18.7397 9.32925 20.0124C9.07358 19.9825 8.82117 19.9426 8.57199 19.8927C7.94872 19.7682 7.34767 19.582 6.76917 19.3349L6.76934 19.3344C6.18111 19.0813 5.63337 18.7855 5.12717 18.4457C4.61994 18.1053 4.14962 17.7186 3.71724 17.2846L3.71536 17.2829C3.38108 16.9497 3.07483 16.5942 2.79609 16.2163ZM11.6706 20.0125C13.1109 18.7398 14.2652 17.4745 15.1383 16.2165H18.2041C17.9253 16.5942 17.6189 16.9498 17.2845 17.2829L17.2828 17.2846C16.8506 17.7187 16.3802 18.1053 15.8728 18.4457C15.3665 18.7855 14.8187 19.0813 14.2307 19.3344C14.2233 19.3375 14.216 19.3409 14.209 19.3445C13.6371 19.5868 13.0434 19.7697 12.4282 19.8927C12.179 19.9426 11.9262 19.9825 11.6706 20.0125ZM18.8036 15.296H15.7277C16.5816 13.841 17.0579 12.3957 17.1647 10.9601H20.0696C20.0472 11.4616 19.9881 11.9509 19.8927 12.4282C19.768 13.0513 19.582 13.6525 19.3349 14.231L19.3342 14.2307C19.1744 14.602 18.9979 14.9573 18.8036 15.296ZM8.39221 20.7953C9.07444 20.9318 9.77718 21 10.5001 21C11.223 21 11.9256 20.9318 12.6078 20.7953C13.2801 20.6606 13.9336 20.4586 14.5685 20.1891C14.5772 20.186 14.5856 20.1828 14.5938 20.1792C15.2267 19.9068 15.8238 19.5836 16.3833 19.2078C16.9418 18.8332 17.4584 18.4085 17.9327 17.9325C18.4086 17.4583 18.8333 16.9415 19.2078 16.3833C19.5832 15.8236 19.9068 15.2267 20.1792 14.5935L20.1785 14.5933L20.1792 14.5918C20.4538 13.9495 20.6592 13.2881 20.7953 12.6078C20.9318 11.9256 20.9998 11.2228 20.9998 10.4999C20.9998 9.77701 20.9318 9.0741 20.7953 8.39186C20.6608 7.71989 20.4584 7.06602 20.1891 6.4313C20.186 6.42276 20.1828 6.41438 20.179 6.40618C19.9066 5.773 19.5832 5.17621 19.2076 4.61652C18.8332 4.05819 18.4085 3.54156 17.9325 3.06731C17.4583 2.59135 16.9415 2.1665 16.3831 1.79206C15.8238 1.41642 15.2265 1.0929 14.5936 0.82066L14.5933 0.821344L14.5916 0.82066C13.9494 0.546194 13.2878 0.340773 12.6076 0.204737C11.9254 0.0681877 11.2226 0 10.4999 0C9.77718 0 9.07427 0.0681877 8.39204 0.204737C7.71989 0.339235 7.0662 0.541409 6.43113 0.810747C6.42276 0.813993 6.41438 0.817072 6.40601 0.820831C5.77283 1.09307 5.17604 1.41642 4.61635 1.79222C4.05819 2.16667 3.54139 2.59152 3.06714 3.06748C2.59118 3.54173 2.1665 4.05853 1.79206 4.61669C1.41642 5.17621 1.09308 5.77317 0.820661 6.40635L0.821345 6.40669L0.820661 6.40823C0.546196 7.05047 0.340774 7.71185 0.204738 8.39221C0.0683599 9.07427 0 9.77701 0 10.5001C0 11.2228 0.0683599 11.9257 0.204909 12.608C0.339407 13.2801 0.541582 13.9338 0.81092 14.5687C0.813996 14.5771 0.817243 14.5856 0.820832 14.5938C1.09325 15.227 1.41642 15.824 1.79223 16.3837C2.16684 16.9418 2.59152 17.4586 3.06731 17.9329C3.54156 18.4088 4.05836 18.8335 4.61652 19.2081C5.17621 19.5838 5.77317 19.9071 6.40618 20.1795L6.40635 20.1788L6.40789 20.1795C7.0503 20.4536 7.71185 20.6591 8.39221 20.7953ZM10.9603 19.4161V16.2163H14.0068C13.2063 17.2718 12.192 18.3382 10.9603 19.4161ZM10.9603 15.296V10.9601H16.2449C16.1254 12.3841 15.5973 13.8292 14.6524 15.296H10.9603ZM10.9603 10.0399V5.70395H14.8073C15.7178 7.13883 16.2068 8.5843 16.2652 10.0399H10.9603ZM10.9603 4.78349V1.54459C12.2668 2.61835 13.3362 3.6981 14.164 4.78349H10.9603ZM10.0399 1.54425V4.78349H6.83599C7.66366 3.6981 8.73298 2.61818 10.0399 1.54425ZM10.0399 5.70395V10.0399H4.73495C4.79323 8.58413 5.282 7.13883 6.1929 5.70395H10.0399ZM10.0399 10.9601V15.296H6.34773C5.40283 13.8292 4.87475 12.3839 4.75512 10.9601H10.0399ZM10.0399 16.2163V19.4164C8.80818 18.3386 7.79372 17.2718 6.99322 16.2163H10.0399Z" fill="#24527A"/>
</svg>
