<svg width="35" height="46" viewBox="0 0 35 46" fill="none" xmlns="http://www.w3.org/2000/svg">
<path fill-rule="evenodd" clip-rule="evenodd" d="M0 20.8251C0 18.6928 1.3348 16.8722 3.21442 16.1533C3.21609 13.6579 3.23286 11.4708 3.39961 9.64137C3.58582 7.59852 3.98114 5.6522 5.01032 4.04771C6.11166 2.33072 7.73678 1.30423 9.75183 0.726778C11.5209 0.219816 13.6829 0.0305068 16.2413 0.00347328V0C16.3547 0 16.4673 0.000277221 16.5793 0.000844181C16.6912 0.000277221 16.8039 0 16.9173 0V0.00347328C19.4756 0.0305068 21.6377 0.219816 23.4067 0.726778C25.4218 1.30423 27.0469 2.33072 28.1482 4.04771C29.1774 5.6522 29.5727 7.59852 29.7589 9.64137C29.9184 11.3901 29.9407 13.4657 29.9438 15.8251H30C32.7614 15.8251 35 18.0637 35 20.8251V34.7262C35 37.4876 32.7614 39.7262 30 39.7262H29.0341H28.9286V45.7143L23.5393 39.7262H20.6818H5C2.23858 39.7262 0 37.4876 0 34.7262V20.8251ZM24.7796 10.0952C24.9178 11.6115 24.9401 13.4683 24.9436 15.8251H8.21492C8.21849 13.4683 8.24076 11.6115 8.37897 10.0952C8.54285 8.29732 8.84772 7.32598 9.21893 6.74726C9.51797 6.28106 9.99343 5.8588 11.1292 5.53331C12.3062 5.19603 14.0214 5.01539 16.5793 5.00094C19.1372 5.01539 20.8524 5.19603 22.0293 5.53331C23.1651 5.8588 23.6406 6.28106 23.9396 6.74726C24.3108 7.32598 24.6157 8.29732 24.7796 10.0952Z" fill="white"/>
<circle r="1.78571" transform="matrix(1 0 0 -1 12.1429 27.5)" fill="#24527A"/>
<circle r="1.78571" transform="matrix(1 0 0 -1 17.1429 27.5)" fill="#24527A"/>
<circle r="1.78571" transform="matrix(1 0 0 -1 22.1429 27.5)" fill="#24527A"/>
</svg>
