<svg width="49" height="63" viewBox="0 0 49 63" fill="none" xmlns="http://www.w3.org/2000/svg">
<path fill-rule="evenodd" clip-rule="evenodd" d="M5 21.1551H5.50074C5.50519 17.8527 5.53645 14.9906 5.75539 12.5887C6.01162 9.77769 6.54698 7.24784 7.85623 5.20671C9.23765 3.05307 11.2829 1.73684 13.9281 0.978795C16.2754 0.30613 19.1927 0.0429758 22.7378 0.00493787V0C22.8967 0 23.0545 0.000395019 23.211 0.00120021C23.3676 0.000395019 23.5253 0 23.6843 0V0.00493787C27.2294 0.0429758 30.1467 0.30613 32.494 0.978795C35.1392 1.73684 37.1844 3.05307 38.5658 5.20671C39.8751 7.24784 40.4105 9.77769 40.6667 12.5887C40.8856 14.9906 40.9169 17.8527 40.9213 21.1551H44C46.7614 21.1551 49 23.3937 49 26.1551V49.6167C49 52.3781 46.7614 54.6167 44 54.6167H40.6477H40.5V63L32.955 54.6167H28.9545H5C2.23858 54.6167 0 52.3781 0 49.6167V26.1551C0 23.3937 2.23858 21.1551 5 21.1551ZM35.6873 13.0426C35.8851 15.212 35.9163 17.8552 35.9212 21.1551H10.5009C10.5058 17.8552 10.537 15.212 10.7347 13.0426C10.9687 10.4765 11.4136 8.92161 12.0648 7.90626C12.644 7.00341 13.5395 6.2914 15.3055 5.78533C17.0869 5.27483 19.6 5.02138 23.211 5.0013C26.8221 5.02138 29.3352 5.27483 31.1166 5.78533C32.8825 6.2914 33.7781 7.00341 34.3572 7.90626C35.0085 8.92161 35.4534 10.4765 35.6873 13.0426Z" fill="white"/>
<circle r="2.5" transform="matrix(1 0 0 -1 17 37.5)" fill="#24527A"/>
<circle r="2.5" transform="matrix(1 0 0 -1 24 37.5)" fill="#24527A"/>
<circle r="2.5" transform="matrix(1 0 0 -1 31 37.5)" fill="#24527A"/>
</svg>
