<svg width="21" height="14" viewBox="0 0 21 14" fill="none" xmlns="http://www.w3.org/2000/svg">
<path fill-rule="evenodd" clip-rule="evenodd" d="M11.7493 10.5957C11.5784 10.5957 11.4434 10.4128 11.4434 10.189C11.4434 9.96509 11.5801 9.78223 11.7493 9.78223H17.8862C18.0571 9.78223 18.1904 9.96509 18.1904 10.189C18.1904 10.4128 18.0537 10.5957 17.8862 10.5957H11.7493ZM4.38525 0H16.6147C16.762 0.000559355 16.9047 0.0518434 17.0186 0.145221C17.1325 0.238599 17.2108 0.368371 17.2402 0.512695H18.7424C19.3403 0.514496 19.9132 0.75269 20.3362 1.17531C20.7591 1.59792 20.9977 2.17066 21 2.76856V11.6553C20.9976 12.2513 20.7592 12.8222 20.3369 13.2429C19.9152 13.6655 19.3429 13.9034 18.7458 13.9043H2.25757C1.66026 13.9025 1.08786 13.6648 0.665018 13.2429C0.242178 12.821 0.00315289 12.2492 0 11.6519L0 2.76514C0.000641503 2.46989 0.0595429 2.17767 0.173328 1.90523C0.287114 1.6328 0.453546 1.38549 0.663086 1.17749C0.871868 0.966978 1.12024 0.799859 1.3939 0.685763C1.66755 0.571666 1.96108 0.512848 2.25757 0.512695H3.75977C3.78893 0.368224 3.86712 0.23827 3.98111 0.144838C4.0951 0.0514062 4.23787 0.000238873 4.38525 0V0ZM17.2607 1.56714V1.65088C17.2603 1.8198 17.193 1.98168 17.0735 2.10113C16.9541 2.22057 16.7922 2.28788 16.6233 2.28833H4.38525C4.21633 2.28788 4.05445 2.22057 3.93501 2.10113C3.81556 1.98168 3.74825 1.8198 3.7478 1.65088V1.56714H2.25757C2.09891 1.56622 1.94165 1.59688 1.79495 1.65732C1.64825 1.71776 1.51504 1.80678 1.40308 1.91919C1.29097 2.0313 1.20227 2.16457 1.14212 2.31127C1.08198 2.45796 1.05159 2.61514 1.05273 2.77368V11.6604C1.05497 11.977 1.18173 12.28 1.40559 12.5038C1.62946 12.7277 1.93244 12.8545 2.24902 12.8567H18.7339C18.8925 12.8576 19.0498 12.827 19.1965 12.7665C19.3432 12.7061 19.4764 12.6171 19.5884 12.5046C19.7008 12.3927 19.7898 12.2595 19.8503 12.1128C19.9107 11.9661 19.9413 11.8088 19.9404 11.6501V2.76343C19.9373 2.44712 19.8103 2.14464 19.5866 1.92097C19.3629 1.69729 19.0604 1.57026 18.7441 1.56714H17.2607ZM7.65796 8.23218C8.86792 9.29175 9.66089 7.76563 10.2539 10.2539C10.2531 10.305 10.2419 10.3554 10.2212 10.4021C10.2005 10.4488 10.1706 10.4909 10.1333 10.5258C10.096 10.5607 10.052 10.5878 10.004 10.6054C9.95606 10.6229 9.90504 10.6307 9.854 10.6282H3.33594C3.28501 10.6302 3.23419 10.6221 3.18642 10.6044C3.13865 10.5866 3.09489 10.5595 3.05768 10.5247C3.02047 10.4899 2.99055 10.448 2.96967 10.4015C2.94879 10.355 2.93735 10.3049 2.93604 10.2539C3.51367 7.80322 4.20923 9.28491 5.5166 8.24756C5.58239 8.08844 5.63944 7.92584 5.6875 7.7605C5.73022 7.6272 5.46533 7.36401 5.37646 7.22217L5.04663 6.6958C4.9409 6.55612 4.87584 6.38992 4.85864 6.21558C4.85608 6.15686 4.8672 6.09836 4.89111 6.04468C4.91726 5.99165 4.95671 5.94631 5.00562 5.91309C5.03053 5.89604 5.05752 5.88226 5.08594 5.87207C5.06218 5.5582 5.05647 5.24323 5.06885 4.92871C5.08252 4.85775 5.10195 4.78802 5.12695 4.72022C5.19741 4.50942 5.31734 4.31858 5.47672 4.16366C5.63609 4.00875 5.83026 3.89428 6.04297 3.82983C6.24976 3.75977 6.16943 3.58887 6.38477 3.60083C6.87695 3.62647 7.63745 3.94263 7.92285 4.28442C8.33301 4.7561 8.22705 5.33716 8.21338 5.9148C8.25471 5.92505 8.29247 5.94637 8.32258 5.97649C8.3527 6.0066 8.37403 6.04436 8.38428 6.08569C8.4032 6.2417 8.37208 6.39969 8.29541 6.53687V6.54883L7.90747 7.17773C7.77501 7.41968 7.61062 7.6427 7.4187 7.84082C7.3623 7.88696 7.61182 8.19287 7.64941 8.24243L7.65796 8.23218ZM11.7595 5.6687C11.5886 5.6687 11.4536 5.48584 11.4536 5.26196C11.4536 5.03809 11.5903 4.85523 11.7595 4.85523H15.4167C15.5876 4.85523 15.7227 5.03809 15.7227 5.26196C15.7227 5.48584 15.5859 5.6687 15.4167 5.6687H11.7595ZM11.7595 8.12451C11.5886 8.12451 11.4536 7.94165 11.4536 7.71777C11.4536 7.4939 11.5903 7.31104 11.7595 7.31104H17.5701C17.741 7.31104 17.876 7.4939 17.876 7.71777C17.876 7.94165 17.7393 8.12451 17.5701 8.12451H11.7595Z" fill="#24527A"/>
</svg>
