<svg width="53" height="51" viewBox="0 0 53 51" fill="none" xmlns="http://www.w3.org/2000/svg">
<path fill-rule="evenodd" clip-rule="evenodd" d="M26.4698 3.59579L34.6907 0L39.1979 7.75888L47.9407 9.74005L47.078 18.699L53 25.4978L47.0996 32.2356L47.9622 41.2599L39.2497 43.2018L34.6907 51L26.5302 47.3998L18.3093 51L13.8021 43.2368L5.05933 41.2599L5.92196 32.2967L0 25.4978L5.90039 18.7644L5.05933 9.74005L13.7503 7.79815L18.3093 0L26.4698 3.59579ZM16.1484 28.1685C13.5304 25.3189 17.5502 21.0729 20.4616 23.761C21.4881 24.708 22.9805 26.0913 24.0156 27.0295L31.995 17.0975C34.7726 14.1955 39.1591 18.459 36.4159 21.3827L26.3965 33.4793C25.8481 34.0664 25.0954 34.4147 24.2977 34.4506C23.5 34.4864 22.7198 34.2069 22.1222 33.6713C20.4228 32.0348 17.9298 29.674 16.1484 28.1685Z" fill="#4278A8"/>
</svg>
