<svg width="161" height="148" viewBox="0 0 161 148" fill="none" xmlns="http://www.w3.org/2000/svg">
<path fill-rule="evenodd" clip-rule="evenodd" d="M53.8501 131.771C26.8071 107.884 32.428 94.6507 33.0831 60.3436C33.0831 60.031 33.1355 59.7314 33.2403 59.4709L26.4403 57.3479C25.4707 35.9873 37.9047 23.2101 53.326 17.0624C58.9338 14.8221 49.5395 2.60495 62.4583 7.30687C79.7139 13.5848 117.999 22.129 127.065 32.9005C134.429 41.6531 134.73 46.3941 134.56 57.8168C134.507 61.5288 133.931 64.772 132.214 65.9833C131.415 66.5433 130.472 66.7648 129.358 66.6606C129.358 87.8518 132.228 107.91 116.832 125.168C107.7 135.405 93.9298 141.97 80.0676 141.761C74.604 141.67 71.2236 140.902 66.5068 139.143C61.8556 137.398 58.0035 135.431 53.8501 131.771ZM101.215 81.1831C104.241 81.1831 106.704 83.6188 106.704 86.6275C106.704 89.6362 104.254 92.0848 101.215 92.0848C98.1749 92.0848 95.7248 89.6362 95.7248 86.6275C95.7248 83.6188 98.188 81.1831 101.215 81.1831ZM59.7592 81.1831C62.7858 81.1831 65.249 83.6188 65.249 86.6275C65.249 89.6362 62.7989 92.0848 59.7592 92.0848C56.7326 92.0848 54.2694 89.6362 54.2694 86.6275C54.2825 83.6188 56.7326 81.1831 59.7592 81.1831ZM113.688 78.5131C114.474 79.555 114.264 81.0529 113.203 81.8344C112.155 82.6159 110.648 82.4075 109.862 81.3525C107.949 78.8126 105.918 77.4841 103.77 76.9762C101.581 76.4552 99.1969 76.7938 96.7074 77.6144C95.4496 78.0312 94.1001 77.3669 93.6939 76.1165C93.2878 74.8661 93.9429 73.5246 95.2007 73.1208C98.4631 72.0268 101.712 71.61 104.844 72.3524C108.054 73.1078 111.041 75.0094 113.688 78.5131ZM56.143 72.3524C59.2744 71.61 62.5238 72.0268 65.7862 73.1208C67.044 73.5376 67.7122 74.8792 67.293 76.1165C66.8737 77.3669 65.5242 78.0312 64.2795 77.6144C61.8162 76.7808 59.4185 76.4682 57.2174 76.9762C55.0817 77.4841 53.0247 78.8257 51.1248 81.3525C50.3387 82.3944 48.8451 82.6159 47.7838 81.8344C46.7356 81.0529 46.5129 79.5681 47.299 78.5131C49.9718 75.0094 52.9591 73.1078 56.143 72.3524ZM70.9092 118.356C69.5859 117.639 69.1142 115.998 69.8479 114.696C70.5685 113.393 72.2194 112.911 73.5296 113.641C76.019 115.008 78.4299 115.751 80.7358 115.803C82.9763 115.842 85.1906 115.23 87.3787 113.901C88.6496 113.12 90.3136 113.511 91.0997 114.774C91.8858 116.037 91.4928 117.704 90.2218 118.473C87.1166 120.375 83.9197 121.247 80.6441 121.182C77.3948 121.104 74.1585 120.14 70.9092 118.356ZM0 144.796V120.179H6.43319V141.605H23.2433V148H3.21004C1.44124 148 0 146.567 0 144.796ZM137.77 141.605H154.58V120.192H161.013V144.809C161.013 146.567 159.585 148 157.803 148H137.783V141.605H137.77ZM0 26.1537V3.19106C0 1.43272 1.44124 0 3.21004 0H23.2302V6.39514H6.43319V26.1667H0V26.1537ZM137.77 0H157.79C159.559 0 161 1.43272 161 3.19106V26.1537H154.567V6.39514H137.757V0H137.77ZM69.8086 134.65C72.547 135.731 77.6568 136.265 80.631 136.265C86.4877 136.265 92.4099 134.949 97.9128 132.448C103.442 129.948 108.539 126.288 112.718 121.599C126.751 105.852 123.868 85.7678 123.868 66.348H123.881C123.829 64.6157 123.567 63.0397 123.095 61.5939C122.637 60.2003 121.982 58.989 121.104 57.96C117.75 54.0526 114.579 54.2089 110.045 54.4434C109.626 54.4564 109.233 54.4824 108.644 54.5215C90.7197 55.303 78.9801 55.29 69.4548 54.4694C60.6764 53.6879 53.7846 52.2552 45.7398 50.1452C44.9799 51.9166 44.1021 53.6489 43.0801 55.3291C41.7699 57.4781 40.25 59.536 38.5074 61.4897C37.9047 93.5566 32.2839 105.539 57.4532 127.747C58.8813 129.01 60.3881 130.13 61.9473 131.094C64.1877 132.462 67.4895 133.907 69.8086 134.65Z" fill="#4278A8"/>
</svg>
